# Blender 4.5.3 LTS
# www.blender.org
mtllib cola.mtl
g Plano_Mesh
v 2.161361 2.395249 -0.374177
v 2.177982 2.413846 -0.587887
v 2.262264 2.613725 -0.602069
v 2.245820 2.595241 -0.388323
v 2.863738 2.534520 -0.524026
v 2.870090 2.541688 -0.607642
v 2.554193 2.399216 -0.631749
v 2.537572 2.380619 -0.418039
v 2.549183 2.588715 -0.635172
v 2.532689 2.570199 -0.421541
v 3.038813 2.703742 -0.596245
v 2.868229 2.615985 -0.609086
v 3.043896 2.693624 -0.596649
v 2.861751 2.608736 -0.525391
v 3.042907 2.692450 -0.583065
v 3.037773 2.702536 -0.582775
vn 0.9216 -0.3862 0.0378
vn 0.9217 -0.3860 0.0381
vn 0.9216 -0.3862 0.0376
vn -0.4137 0.9092 0.0466
vn -0.4136 0.9093 0.0465
vn -0.4137 0.9092 0.0469
vn 0.0492 0.9947 0.0904
vn -0.0972 -0.9909 -0.0933
vn -0.0973 -0.9909 -0.0934
vn -0.0971 -0.9909 -0.0932
vn 0.1165 0.0211 0.9930
vn 0.1167 0.0212 0.9929
vn 0.1165 0.0212 0.9930
vn 0.1166 0.0213 0.9930
vn -0.1168 -0.0209 -0.9929
vn -0.1166 -0.0213 -0.9930
vn -0.1167 -0.0211 -0.9929
vn -0.0725 0.0056 0.9974
vn 0.0913 -0.9927 -0.0789
vn 0.0914 -0.9927 -0.0789
vn 0.0913 -0.9927 -0.0790
vn -0.0831 0.0160 0.9964
vn -0.0832 0.0158 0.9964
vn -0.0832 0.0160 0.9964
vn -0.0833 0.0161 0.9964
vn -0.2934 -0.0321 -0.9554
vn -0.2981 -0.0253 -0.9542
vn -0.2907 -0.0344 -0.9562
vn -0.8895 -0.4442 -0.1073
vn -0.2888 -0.0350 -0.9568
vn -0.6586 0.7524 0.0144
vn -0.6586 0.7524 0.0145
vn -0.6585 0.7524 0.0143
vn -0.6585 0.7524 0.0144
vn 0.4593 -0.8873 -0.0415
vn 0.4594 -0.8873 -0.0413
vn 0.4594 -0.8873 -0.0414
vn 0.4592 -0.8874 -0.0416
vt 1.000000 0.000000
vt 1.000000 1.000000
vt 0.000000 1.000000
vt 0.000000 0.000000
s 1
g off
g Plano_Goddard_None
usemtl Goddard_None
f 1/1/1 2/2/2 3/3/1
f 3/3/1 4/4/3 1/1/1
s 2
f 5/1/4 6/2/5 7/2/6
f 7/2/6 8/1/6 5/1/4
s 3
f 8/1/7 7/2/7 2/2/7
f 2/2/7 1/1/7 8/1/7
s 4
f 9/3/8 10/4/9 4/4/8
f 4/4/8 3/3/10 9/3/8
s 5
f 7/2/11 9/3/12 3/3/13
f 3/3/13 2/2/14 7/2/11
s 6
f 10/4/15 8/1/16 1/1/17
f 1/1/17 4/4/15 10/4/15
s 7
f 11/3/18 12/3/18 6/2/18
f 6/2/18 13/2/18 11/3/18
s 8
f 12/3/19 14/4/20 10/4/21
f 10/4/21 9/3/21 12/3/19
s 9
f 9/3/22 7/2/23 6/2/24
f 6/2/24 12/3/25 9/3/22
s 10
f 5/1/26 8/1/27 10/4/27
f 10/4/27 14/4/28 5/1/26
s 11
f 11/3/29 13/2/29 15/1/29
f 15/1/29 16/4/29 11/3/29
s 10
f 14/4/28 16/4/30 15/1/30
f 15/1/30 5/1/26 14/4/28
s 12
f 13/2/31 6/2/32 5/1/33
f 5/1/33 15/1/34 13/2/31
s 13
f 16/4/35 14/4/36 12/3/37
f 12/3/37 11/3/38 16/4/35
